<?xml version="1.0" encoding="utf-8"?>
<!-- Generator: Adobe Illustrator 24.3.0, SVG Export Plug-In . SVG Version: 6.00 Build 0)  -->
<svg version="1.1" id="Layer_1" xmlns="http://www.w3.org/2000/svg" xmlns:xlink="http://www.w3.org/1999/xlink" x="0px" y="0px"
	 viewBox="0 0 224.2 24" style="enable-background:new 0 0 224.2 24;" xml:space="preserve">
<style type="text/css">
	.st0{display:none;}
	.st1{display:inline;}
	.st2{fill-rule:evenodd;clip-rule:evenodd;}
	.st3{display:inline;fill:none;stroke:#EC008C;stroke-width:0.25;stroke-miterlimit:3.8636;stroke-dasharray:3,2;}
	.st4{fill:none;stroke:#EC008C;stroke-width:0.25;stroke-miterlimit:3.8636;stroke-dasharray:3,2;}
	.st5{fill:#B39E80;}
</style>
<g id="Design">
</g>
<g id="Emboss" class="st0">
	<g class="st1">
		<g>
			<path class="st2" d="M347.8,36.2l0.1,0.1l0,0c0.2,0.1,0.6,0.2,0.8,0.3l0.7,0.2v2.4h-8.5v-2.5l0.7-0.2c0.2,0,0.7-0.2,0.9-0.3
				c0.1-0.1,0.1-0.2,0.1-0.3c0-0.2,0-0.4,0.1-0.6c0-0.3,0-0.6,0-0.9v-3.3v-9.7c0-1.9-0.6-4.2-2.7-3.3c0,0,0,0-0.1,0.1l-0.1,0.1l0,0
				v0.1c0,0.1,0,0.1,0.1,0.2l0,0c0.2,0.3,0.4,0.6,0.4,1c0,0.2,0,0.4-0.1,0.7c0,0.1-0.1,0.3-0.2,0.4c-0.3,0.7-1,0.9-1.7,0.8
				c-2.3-0.5-1.7-3.9,0.3-4.8c1.4-0.8,2.1-0.5,5.9-0.5h5v2.5l-0.7,0.2c-0.2,0.1-0.5,0.1-0.8,0.2l-0.1,0.1l0,0l0,0
				c0,0.1-0.1,0.3-0.1,0.4c0,0.2,0,0.4-0.1,0.5c0,0.3,0,0.6,0,0.9v13.4c0,0.3,0,0.6,0,0.9c0,0.2,0,0.3,0,0.5
				C347.7,35.9,347.8,36.1,347.8,36.2z"/>
		</g>
		<g>
			<path class="st2" d="M363.4,35.9h3.1c0.3,0,0.6,0,1-0.1c0.2,0,0.3-0.1,0.5-0.1l0,0c0.1-0.1,0.2-0.1,0.3-0.2
				c0.1-0.2,0.3-0.3,0.3-0.5l0,0l0,0c0.2-0.3,0.3-0.7,0.4-1c0.2-0.7,0.4-1.4,0.5-2l0.2-0.8h3.4l-0.5,8h-15.9v-2.5l0.7-0.2
				c0.2,0,0.7-0.2,0.9-0.3c0.1-0.1,0.1-0.2,0.1-0.3c0-0.2,0.1-0.4,0.1-0.6c0-0.3,0-0.6,0-0.9V22.7v-1.3c0-1.9-0.6-4.2-2.7-3.3
				c0,0,0,0-0.1,0.1l-0.1,0.1l0,0v0.1c0,0.1,0,0.1,0.1,0.2l0,0c0.2,0.3,0.4,0.6,0.4,1c0,0.2,0,0.4-0.1,0.7c0,0.1-0.1,0.3-0.2,0.4
				c-0.3,0.7-1,0.9-1.7,0.8c-2.3-0.5-1.7-3.9,0.3-4.8c1.3-0.8,2-0.5,5.8-0.5h5v2.5l-0.7,0.2c-0.2,0.1-0.6,0.1-0.8,0.3l0,0l0,0
				c-0.1,0-0.1,0.1-0.1,0.1c0,0.1-0.1,0.3-0.1,0.3l0,0c0,0.2,0,0.4-0.1,0.5c0,0.3,0,0.6,0,0.9C363.4,21,363.4,35.9,363.4,35.9z"/>
		</g>
		<g>
			<path class="st2" d="M263.3,28.4l-1.6-5.3l-1.2,3.5c0.3,0.2,0.7,0.3,1,0.5C262.1,27.5,262.7,27.9,263.3,28.4L263.3,28.4z
				 M259.9,28.2l-0.6,1.6l-0.7,2l-0.5,1.3c-0.1,0.3-0.2,0.6-0.3,1c-0.1,0.2-0.1,0.4-0.2,0.6c-0.1,0.3-0.1,0.6-0.1,0.9
				c0,0.2,0,0.5,0.2,0.6c0.2,0.2,0.7,0.3,0.9,0.3l0.8,0.1v2.6h-8.5v-2.6l0.8-0.1c0.4-0.1,0.7-0.3,0.9-0.6c0.5-0.6,0.8-1.5,1.1-2.2
				l2.4-6.4c-0.3,0-0.5,0-0.8,0c-1.3,0-2.3,0.3-3,0.8c0,0,0,0.1-0.1,0.1c0,0-0.1,0.1-0.1,0.2c0,0,0,0,0,0.1v0.1
				c0,0.1,0.1,0.2,0.2,0.2l0,0c0.4,0.3,0.7,0.6,1,1.1c0.1,0.3,0.2,0.6,0.2,0.9c0,0.2,0,0.4-0.1,0.6c-0.1,0.3-0.2,0.6-0.4,0.8
				s-0.4,0.4-0.7,0.6c-0.3,0.1-0.5,0.2-0.8,0.3c-0.1,0-0.2,0-0.3,0c-0.2,0-0.4,0-0.6-0.1c-0.4-0.1-0.8-0.3-1.1-0.6s-0.5-0.7-0.6-1.1
				l0,0c0-0.1,0-0.2,0-0.3s0-0.2,0-0.3c0-0.7,0.2-1.4,0.5-2c0.3-0.6,0.8-1.2,1.4-1.6c0.6-0.5,1.3-0.8,2.1-1.1
				c0.8-0.3,1.6-0.4,2.4-0.4c0.5,0,1,0,1.5,0.1l3.6-9.6h3.9l5.6,17.8c0.2,0.6,0.4,1.2,0.6,1.7c0.1,0.2,0.3,0.5,0.5,0.7
				c0.2,0.2,0.5,0.3,0.7,0.3l0.7,0.2v2.4h-9.1v-2.5l0.8-0.2c0.3-0.1,0.7-0.1,0.9-0.3c0.1,0,0.1-0.1,0.1-0.1l0,0
				c0-0.1,0.1-0.3,0.1-0.4c0-0.3,0-0.6-0.1-0.9c-0.1-0.4-0.2-0.9-0.3-1.3l0,0l-0.3-0.9c-0.4-0.8-1-1.6-1.7-2.3
				C261.9,29.4,261,28.7,259.9,28.2z"/>
		</g>
		<g>
			<path class="st2" d="M277.6,16.2h6c1.7,0,3.5,0.1,5.1,0.7c1.3,0.5,2.5,1.1,3.5,2.1s1.7,2.2,2.2,3.5c0.5,1.5,0.7,3.2,0.7,4.8
				s-0.2,3.3-0.6,4.9c-0.4,1.3-1,2.6-1.9,3.7c-0.8,0.9-1.7,1.6-2.7,2.2c-0.2,0.1-0.3,0.2-0.5,0.3c-0.3,0.2-0.6,0.4-0.9,0.5
				c-0.8,0.3-1.6,0.5-2.5,0.5h-3.4h-1.1H276v-2.5l0.7-0.2c0.2-0.1,0.6-0.1,0.8-0.3l0,0c0.1,0,0.1-0.1,0.1-0.1
				c0.1-0.1,0.1-0.3,0.1-0.4c0-0.2,0-0.4,0-0.5c0-0.3,0-0.6,0-0.9v-0.9V21.5c0-1.9-0.6-4.2-2.7-3.3c0,0,0,0-0.1,0.1l-0.1,0.1l0,0
				v0.1c0,0.1,0,0.1,0.1,0.2l0,0c0.2,0.3,0.4,0.6,0.4,1c0,0.2,0,0.4-0.1,0.7c0,0.1-0.1,0.3-0.2,0.4c-0.3,0.7-1,0.9-1.7,0.8
				c-2.3-0.5-1.7-3.9,0.3-4.8C274.7,16.1,275.3,16.2,277.6,16.2L277.6,16.2L277.6,16.2z M289.6,31.5L289.6,31.5L289.6,31.5
				c0.1-0.4,0.2-0.8,0.2-1.2c0.1-0.9,0.2-1.8,0.2-2.7c0-1.6-0.2-3.3-0.8-4.8c-0.5-1-1.2-1.9-2.2-2.5c-1.1-0.6-2.3-0.8-3.5-0.8
				c-0.3,0-0.7,0-1,0v8.4c0.1,0,0.1,0,0.2,0c0.2,0,0.4,0,0.6,0l0,0c0.1,0,0.2,0,0.3,0h0.1c0.1,0,0.2,0,0.3,0h0.1
				c0.2,0,0.3,0,0.5,0.1c0.1,0,0.3,0.1,0.4,0.1s0.3,0.1,0.4,0.1c0.1,0.1,0.3,0.1,0.4,0.1l0,0c0.1,0,0.1,0.1,0.2,0.1h0.1
				c0,0,0,0,0.1,0h0.1c0.2,0.1,0.5,0.3,0.7,0.5c0.5,0.4,0.8,0.8,1.1,1.2c0.1,0.3,0.3,0.5,0.4,0.8c0.1,0.4,0.2,0.8,0.2,1.2
				c0,0.3,0,0.6-0.1,0.9c0,0.1-0.1,0.2-0.1,0.2c0,0.1-0.1,0.1-0.1,0.2c0,0.1,0,0.1-0.1,0.2l0,0c0,0.1-0.1,0.2-0.2,0.3
				c-0.1,0.3-0.2,0.4-0.3,0.5c-0.3,0.3-0.6,0.5-1,0.7c-0.2,0.1-0.5,0.1-0.7,0.1c-0.2,0-0.4,0-0.6-0.1c-0.1,0-0.2-0.1-0.3-0.1
				c-0.1,0-0.2-0.1-0.3-0.1c-0.4-0.2-0.7-0.6-0.9-1c0-0.4-0.1-0.7-0.1-1c0-0.2,0-0.4,0.1-0.6c0.1-0.3,0.2-0.6,0.4-0.8
				c0.2-0.2,0.4-0.4,0.6-0.6c0,0,0,0,0.1,0c0,0,0,0,0.1,0c0.2-0.1,0.4-0.2,0.4-0.4v-0.1c0-0.1-0.1-0.3-0.3-0.4l-0.1-0.1l-0.1-0.1
				c-0.2-0.1-0.5-0.2-0.8-0.2c-0.3-0.1-0.6-0.1-0.8-0.1c-0.5,0-0.9,0.1-1.2,0.2c-0.7,0.2-1.2,0.6-1.7,1.1s-0.8,1.1-1,1.7
				c0,0,0,0,0,0.1v0.1c-0.1,0.3-0.1,0.5-0.1,0.8c0,0.2,0,0.3,0,0.5s0.1,0.3,0.1,0.5c0.2,0.7,0.5,1.3,1,1.8
				C284,39.9,288.8,35.5,289.6,31.5L289.6,31.5z"/>
		</g>
		<g>
			<path class="st2" d="M226.3,16.2h3.7l4.8,13.3l5.4-13.3h6.9v2.5l-0.7,0.2c-0.2,0.1-0.5,0.1-0.8,0.2c-0.1,0-0.1,0.1-0.2,0.1
				c0,0.1-0.1,0.3-0.1,0.4c0,0.2,0,0.4-0.1,0.5c0,0.3,0,0.6,0,0.9v13.4c0,0.5,0,0.9,0.1,1.4c0,0.1,0.1,0.3,0.1,0.4l0.1,0.1l0,0
				c0.2,0.1,0.6,0.2,0.8,0.3l0.7,0.2v2.4h-8.4v-2.5l0.7-0.2c0.2,0,0.7-0.2,0.9-0.3c0.1-0.1,0.1-0.2,0.1-0.3c0-0.2,0.1-0.4,0.1-0.6
				c0-0.3,0-0.7,0-1v-5.8c0-1,0-2.1,0-3.1l-4.5,11.4h-3.1l-4.2-11.3c0,1.1,0,2.2,0,3.3v5.7c0,0.5,0,0.9,0.1,1.4c0,0.1,0,0.3,0.1,0.4
				l0,0l0,0l0.1,0.1l0,0c0.2,0.1,0.6,0.2,0.8,0.3l0.7,0.2v2.3h-7.6v-2.5l0.7-0.2c0.2,0,0.7-0.2,0.9-0.3c0.1-0.1,0.1-0.2,0.1-0.3
				c0-0.2,0-0.4,0.1-0.6c0-0.3,0-0.6,0-0.9v-3.3v-9.7c0-1.9-0.6-4.2-2.7-3.3c0,0,0,0-0.1,0.1l-0.1,0.1l0,0v0.1c0,0.1,0,0.1,0.1,0.2
				l0,0c0.2,0.3,0.4,0.6,0.4,1c0,0.2,0,0.4-0.1,0.7c0,0.1-0.1,0.3-0.2,0.4c-0.3,0.7-1,0.9-1.7,0.8c-2.3-0.5-1.7-3.9,0.3-4.8
				C221.8,15.9,222.5,16.2,226.3,16.2z"/>
		</g>
		<g>
			<path class="st2" d="M423.2,16.1h2.9l8,13.2l0,0c0-1.7-0.1-3.4-0.1-5.1v-3.3c0-0.5,0-1-0.1-1.4c0-0.1,0-0.3-0.1-0.3l0,0l0,0
				l-0.1-0.1c-0.2-0.1-0.5-0.2-0.8-0.3l-0.7-0.2v-2.5h7.6v2.5l-0.7,0.2c-0.2,0.1-0.6,0.1-0.8,0.2l-0.1,0.1l0,0l0,0
				c0,0.1-0.1,0.3-0.1,0.3l0,0c0,0.2,0,0.4-0.1,0.5c0,0.3,0,0.6,0,0.9v18.4h-3.5l-9-14.9c0-0.1-0.1-0.1-0.1-0.2c0,0.3,0,0.5,0,0.8
				c0,2.1,0,4.1,0,6.2v3.2c0,0.5,0,0.9,0.1,1.4c0,0.1,0,0.3,0.1,0.4l0,0l0,0l0.1,0.1l0,0c0.2,0.1,0.6,0.2,0.8,0.3l0.7,0.2v2.5h-7.6
				v-2.5l0.7-0.2c0.2,0,0.7-0.2,0.9-0.3c0.1-0.1,0.1-0.2,0.1-0.3c0-0.2,0-0.4,0.1-0.6c0-0.3,0-0.6,0-0.9V31v-9.7
				c0-1.9-0.6-4.2-2.7-3.3c0,0,0,0-0.1,0.1l-0.1,0.1l0,0v0.1c0,0.1,0,0.1,0.1,0.2l0,0c0.2,0.3,0.4,0.6,0.4,1c0,0.2,0,0.4-0.1,0.7
				c0,0.1-0.1,0.3-0.2,0.4c-0.3,0.7-1,0.9-1.7,0.8c-2.3-0.5-1.7-3.9,0.3-4.8C418.7,15.8,419.3,16.1,423.2,16.1z"/>
		</g>
		<g>
			<path class="st2" d="M404.4,39.2c-0.1,0-0.1,0-0.2,0h-0.1c-0.5,0-1,0-1.4-0.1c-0.7-0.1-1.4-0.3-2-0.5c-1.2-0.5-2.2-1.2-3-2.2
				c-0.9-1.1-1.5-2.3-1.9-3.7c-0.5-1.6-0.6-3.4-0.6-5.1c0-2.1,0.3-4.3,1.1-6.3c0.7-1.7,1.8-3.2,3.4-4.2c1.5-1,3.3-1.5,5.1-1.5
				c1.8,0,3.6,0.4,5.2,1.4c1.5,1,2.6,2.4,3.2,4c0.8,1.9,1,4.1,1,6.1c0,2.2-0.3,4.5-1.2,6.5c-0.7,1.7-1.9,3.2-3.5,4.2
				C408,38.8,406.3,39.2,404.4,39.2L404.4,39.2z M397.2,29.7C397.2,29.7,397.2,29.8,397.2,29.7v0.1v0.1V30l0,0c0,0,0,0.1,0.1,0.3
				c0,0,0,0,0,0.1v0.1v0.1l0.2,0.5c0.5,1.1,1.3,2.1,2.5,2.8c1.1,0.7,2.4,1.1,3.9,1.1h0.1h0.1h0.1c1,0,2-0.4,2.9-1
				c0.5-0.4,1-0.9,1.4-1.5c0.4-0.6,0.7-1.3,0.9-2.1c0.1-0.3,0.1-0.6,0.2-0.9c0-0.3,0.1-0.7,0.1-1c0-0.5-0.1-1-0.2-1.4l0,0
				c-0.1-0.3-0.2-0.5-0.3-0.8c-0.3-0.4-0.6-0.8-0.9-1.1c-0.6-0.6-1.3-1-2.1-1.2c-0.2,0-0.4-0.1-0.6-0.1c-0.2,0-0.4,0-0.6,0
				c-0.3,0-0.7,0-1,0.1h-0.1c0,0,0,0-0.1,0c-0.8,0.2-1.5,0.6-2.1,1.1c-0.6,0.6-1,1.2-1.3,2c-0.1,0.4-0.2,0.9-0.2,1.5
				c0,0.3,0,0.7,0.1,1s0.2,0.6,0.3,0.9l0.1,0.1c0,0,0,0.1,0.1,0.1c0.1,0.2,0.3,0.3,0.4,0.3h0.1c0.2,0,0.4-0.2,0.5-0.5
				c0,0,0,0,0.1-0.1c0,0,0,0,0.1-0.1c0.2-0.3,0.4-0.5,0.7-0.8c0.3-0.2,0.6-0.4,1-0.4c0.2,0,0.4-0.1,0.7-0.1c0.4,0,0.7,0.1,1,0.2
				c0.5,0.2,1,0.6,1.2,1.1c0.1,0.1,0.1,0.2,0.2,0.4c0,0.1,0.1,0.2,0.1,0.4c0,0.2,0.1,0.4,0.1,0.7s0,0.5-0.1,0.8
				c-0.2,0.5-0.4,0.9-0.8,1.2c-0.1,0.1-0.2,0.1-0.3,0.2c-0.1,0.1-0.2,0.1-0.3,0.2l0,0c-0.1,0-0.1,0.1-0.2,0.1c-0.1,0-0.1,0-0.2,0.1
				c-0.1,0-0.2,0-0.3,0.1c-0.3,0.1-0.7,0.1-1,0.1c-0.5,0-1-0.1-1.5-0.2c-0.3-0.1-0.7-0.3-1-0.4c-0.5-0.3-1-0.7-1.5-1.3
				c-0.2-0.3-0.4-0.5-0.5-0.8v-0.1c0,0,0-0.1-0.1-0.1c0,0,0,0-0.1-0.1c0-0.1-0.1-0.2-0.1-0.3l0,0c0-0.2-0.1-0.3-0.2-0.5
				c-0.1-0.1-0.1-0.3-0.2-0.5c0-0.2-0.1-0.3-0.1-0.5s0-0.4-0.1-0.5v0.1c0-0.1,0-0.2,0-0.4l0,0c0-0.1,0-0.2,0-0.3l0,0
				c0-0.3,0-0.5,0.1-0.7c0-0.2,0.1-0.5,0.1-0.7c0-0.3,0.1-0.5,0.2-0.8c0-0.1,0.1-0.2,0.1-0.3l0,0C398.7,26.1,397.2,27.6,397.2,29.7
				L397.2,29.7z M400.6,23.5l0.5-0.4c0.6-0.4,1.2-0.7,1.8-0.9c0.6-0.2,1.4-0.3,2.1-0.3c0.7,0,1.4,0.1,2.1,0.3
				c0.5,0.2,0.9,0.4,1.4,0.6c0-0.1,0-0.1-0.1-0.2c-0.3-1-0.8-2.1-1.6-2.8c-0.6-0.5-1.3-0.8-2.2-0.8c-0.7,0-1.3,0.1-1.9,0.5
				c-0.6,0.4-1,0.9-1.3,1.5C401,21.7,400.7,22.6,400.6,23.5z"/>
		</g>
		<g>
			<path class="st2" d="M380.5,33c0.1,0.6,0.3,1.3,0.7,1.8c0.2,0.4,0.6,0.6,1,0.8c0.5,0.2,1.2,0.3,1.8,0.3c0.7,0,1.6-0.1,2.1-0.7
				c0.5-0.5,0.7-1.3,0.7-2.1c0-0.5-0.1-1.1-0.3-1.5c-0.2-0.5-0.6-0.8-1-1.2c-0.3-0.3-0.7-0.5-1.1-0.7c-0.5-0.3-1-0.6-1.6-0.8
				c-1.1-0.5-2.1-1.1-3.1-1.9c-0.7-0.6-1.4-1.3-1.8-2.2c-0.4-0.8-0.6-1.7-0.6-2.6c0-1.3,0.3-2.5,1-3.5c0.7-1.1,1.7-1.8,2.8-2.3
				c1.3-0.6,2.6-0.8,4-0.8c0.8,0,1.6,0,2.4,0.1c1,0.1,2,0.3,3,0.6l0.7,0.2v5.9h-3.3l-0.2-0.7c-0.2-0.5-0.4-1.2-0.8-1.7
				c-0.2-0.3-0.5-0.6-0.9-0.7c-0.5-0.2-1-0.2-1.5-0.2s-1,0.1-1.4,0.3c-0.4,0.2-0.6,0.4-0.9,0.8c-0.2,0.2-0.3,0.7-0.3,1.1
				c0,0.5,0.1,1,0.3,1.4s0.6,0.8,1,1.1c0.3,0.2,0.6,0.4,0.9,0.6c0.5,0.3,0.9,0.5,1.4,0.7c1.1,0.6,2.3,1.2,3.3,1.9
				c0.8,0.6,1.5,1.4,2,2.2c0.5,0.9,0.7,2,0.7,3c0,1.1-0.2,2.2-0.6,3.2c-0.4,0.9-1,1.6-1.7,2.2c-0.8,0.6-1.6,1-2.5,1.2
				c-1,0.2-2,0.3-3,0.3c-2,0-4-0.4-5.9-0.8l-0.8-0.1v-6h3.3L380.5,33z"/>
		</g>
		<g>
			<path class="st2" d="M332.9,18.9c-0.1,0.1-0.2,0.2-0.3,0.3c-0.2,0.2-0.3,0.6-0.4,0.8c-0.3,0.6-0.5,1.2-0.7,1.8l-6,17.4h-3.7
				l-3.6-14.5L314,39.2h-4l-4.7-17.5c-0.2-0.5-0.3-1.1-0.5-1.6c-0.1-0.3-0.2-0.6-0.4-0.9c-0.1-0.1-0.1-0.2-0.2-0.3
				c-0.1-0.1-0.3-0.1-0.5-0.2l-0.7-0.2V16h8.6v2.5l-0.8,0.1c-0.2,0-0.7,0.2-0.9,0.3c0,0.2,0,0.4,0,0.5c0,0.4,0,0.7,0.1,1.1
				c0.1,0.5,0.2,1.1,0.4,1.6l2.2,8.8l4.2-14.8h4.1l3.4,14.8l2.6-8.4c0.2-0.6,0.4-1.2,0.5-1.8c0.1-0.3,0.1-0.7,0.1-1
				c0-0.1,0-0.6-0.1-0.7c-0.1-0.2-0.6-0.2-0.8-0.3l-0.7-0.1V16h8.1v2.4l-0.7,0.2C333.2,18.8,333,18.8,332.9,18.9z"/>
		</g>
	</g>
</g>
<g id="Guide" class="st0">
	<path class="st3" d="M601.1,5.3c0-10.2,8.2-18.4,18.4-18.4h238.1c10.2,0,18.4,8.2,18.4,18.4v127.6c0,10.2-8.2,18.4-18.4,18.4H619.5
		c-10.2,0-18.4-8.2-18.4-18.4V5.3L601.1,5.3z"/>
	<g class="st1">
		<path class="st4" d="M433,118.4H227.8c-19.6,0-35.4-15.9-35.4-35.4v-95.8c0-19.6,15.9-35.4,35.4-35.4H433
			c19.6,0,35.4,15.9,35.4,35.4V83C468.4,102.6,452.6,118.4,433,118.4z"/>
		<path class="st4" d="M433,112.8H227.8c-16.4,0-29.8-13.3-29.8-29.8v-95.8c0-16.4,13.3-29.8,29.8-29.8H433
			c16.4,0,29.8,13.3,29.8,29.8V83C462.7,99.5,449.4,112.8,433,112.8z"/>
		<path class="st4" d="M430.7,95.8H230c-8.3,0-15-6.7-15-15v-91.3c0-8.3,6.7-15,15-15h200.7c8.3,0,15,6.7,15,15v91.3
			C445.7,89,439,95.8,430.7,95.8z"/>
	</g>
</g>
<g>
	<g>
		<path class="st5" d="M4.9,22.4c1-1.1,1.2-2.7,0.7-4.6L2.1,5C1.7,3.8,1.1,2.1,0,1.5V1.5h7.3v0.1C6.5,2.2,6.1,3.7,6.5,5.3L8.2,12
			c0.4,1.7,0.6,3.1,0.7,5.5h0.1c0.6-2.5,1.4-4.4,2.1-5.8l3.2-6.6c0.8-1.7,1.2-2.9,1.5-3.8h0.2c0.3,0.9,0.6,2.1,1.5,3.8l2.9,5.7
			c1.5,2.9,2,4.6,2.4,6.7H23c0.2-2.3,0.5-4.4,0.9-6.2l1.5-6c0.4-1.7,0-3-0.8-3.7l0-0.1h6.7v0.1c-1.1,0.6-1.8,2.2-2.1,3.5l-3,12.7
			c-0.5,2.1-0.2,3.4,0.7,4.6v0.1h-7.1v-0.1c0.5-0.8,0.5-2.2-0.2-3.7l-2.2-4.7c-0.7-1.4-1.2-3.3-1.4-4.6H16c-0.4,1.6-0.8,2.9-1.3,3.9
			l-2.5,5.4c-0.7,1.5-0.7,2.9-0.2,3.7v0.1L4.9,22.4L4.9,22.4L4.9,22.4L4.9,22.4z"/>
		<path class="st5" d="M46.7,16.7l-0.8,6c-1.1-0.2-1.9-0.2-3.7-0.2H31.5v-0.1c0.8-0.5,1.6-2,1.6-4.5V6c0-2.5-0.8-4-1.6-4.5V1.5h10.8
			c1.2,0,2.5-0.1,3.2-0.2l0.5,5.4l-0.1,0c-0.7-1.5-2.4-2.2-4.7-2.2h-4v5.3h2.3c2.5,0,3.4,0,4.7-0.2l-0.9,5.1h-0.1
			c-0.5-1.4-1.6-1.9-3.3-1.9h-2.8v6.8h3.3C43.2,19.5,45.3,18.5,46.7,16.7L46.7,16.7z"/>
		<path class="st5" d="M48.3,21.7l-0.5-5.1l0.1,0c1.8,2.4,3.8,3.2,6.2,3.2c2.4-0.1,3.5-1.1,3.5-2.7c0-2.1-1.8-2.9-3.9-3.7
			c-2.6-1.1-5.6-2.3-5.6-6.5c0-3,2.6-5.7,7.2-5.7c1.6,0,3,0.2,4.7,0.6l0.4,5h-0.1c-1.3-2-3-2.5-4.8-2.5c-2.3,0-3.5,0.8-3.5,2.3
			c0,1.8,1.7,2.4,3.7,3.3c2.7,1.1,5.9,2.4,5.9,7c0,3.4-2.5,6.1-7.4,6.2C52,22.9,49.7,22.5,48.3,21.7z"/>
		<path class="st5" d="M78,6.7L78,6.7c-0.8-1.2-2.2-2.2-4-2.2h-2.3v13.1c0,2.6,0.8,4.2,1.8,4.7v0.1h-7.8v-0.1
			c0.9-0.5,1.8-2.1,1.8-4.7V4.5h-2.3c-1.8,0-3.2,1-3.9,2.2l-0.1,0l0.5-5.5c1.4,0.2,2.7,0.2,4.1,0.2h7.4c1.5,0,2.7-0.1,4.1-0.2
			L78,6.7z"/>
	</g>
	<g>
		<path class="st5" d="M103.4,6v12c0,2.4,0.8,3.8,1.6,4.3v0.1h-7.3v-0.1c0.7-0.5,1.5-2,1.5-4.3v-5.3h-8v5.2c0,2.5,0.8,4,1.5,4.5v0.1
			h-7.3v-0.1c0.8-0.5,1.6-2,1.6-4.5V6c0-2.5-0.8-4-1.6-4.5V1.5h7.3v0.1C92,2,91.2,3.5,91.2,6v3.7h8V6c0-2.5-0.8-4-1.5-4.5V1.5h7.3
			v0.1C104.2,2,103.4,3.5,103.4,6z"/>
		<path class="st5" d="M126.5,22.4L126.5,22.4l-6.8,0.1v-0.1c0.5-0.4,0.8-1.6,0-3.7l-0.3-0.7h-7.8l-0.3,0.7
			c-0.8,2.1-0.5,3.3-0.1,3.7v0.1H105v-0.1c0.8-0.7,2.1-2.6,2.9-4.9l4.3-12.4c0.6-1.8,0-3-0.5-3.5V1.5h8v0.1
			c-0.6,0.5-1.2,1.8-0.5,3.5l4.4,12.4C124.4,19.8,125.7,21.7,126.5,22.4z M113.8,11.8l-1.1,3.2h5.8l-1.1-3.2c-0.7-2-1.4-4-1.8-6.3
			h-0.1C115.2,7.8,114.5,9.8,113.8,11.8z"/>
		<path class="st5" d="M146,21.9L146,21.9l-6.2,1.2c-0.4-1.2-0.9-2.2-1.5-3.4l-4.7-8h1.4c2.6,0,4-1.1,4-3.7c0-2.2-1.4-3.6-4-3.6
			l-2.1,0V18c0,2.4,0.8,3.8,1.5,4.3v0.1h-7.3v-0.1c0.8-0.5,1.6-2,1.6-4.5v-12c0-2.4-0.8-3.8-1.6-4.3V1.5h8.6c4.8,0,7.6,2.4,7.6,6.4
			c0,3.2-1.6,5.2-4.1,6l2.8,4.6C143.2,20.2,144.6,21.4,146,21.9z"/>
		<path class="st5" d="M162.1,16.3c0,3.9-3,6.2-7.1,6.2h-9.2v-0.1c0.8-0.6,1.8-1.9,1.8-4.6V6.2c0-2.5-0.8-4-1.8-4.6V1.5h8.3
			c4.5,0,6.8,1.7,6.8,5.3c0,2.3-1.7,4.2-3.5,4.4v0.1C160.1,11.6,162.1,13.8,162.1,16.3z M157.8,16.1c0-2-1.1-3.3-3.4-3.3h-2.7v6.7
			h2.7C156.7,19.5,157.8,18.1,157.8,16.1z M151.8,4.4v5.4h2.2c1.8,0,2.8-1,2.8-2.9c0-1.7-1-2.5-2.8-2.5L151.8,4.4L151.8,4.4z"/>
		<path class="st5" d="M162.7,12.2c0-6.8,4.2-11.3,11.2-11.3c6.5,0,10.8,4.4,10.8,10.9c0,6.7-4.5,11.3-11.2,11.3
			C166.7,23.1,162.7,18.3,162.7,12.2z M180.2,12c0-5.1-2.5-8-6.6-8c-4,0-6.4,3.1-6.4,7.8c0,4.9,2.2,8.1,6.5,8.1
			C177.5,19.9,180.2,16.9,180.2,12z"/>
		<path class="st5" d="M186.3,13.8V6c0-2.5-0.9-4-1.6-4.5V1.5h7.3v0.1c-0.7,0.5-1.5,2-1.5,4.5v8.1c0,4.1,1.2,5.6,4.5,5.6
			c2.9,0,4.3-1.8,4.3-5.6V6c0-2.5-0.9-4-1.5-4.5V1.5h7.2v0.1c-0.8,0.5-1.6,2-1.6,4.5v7.8c0,6.1-2.8,9.1-8.7,9.1
			C189.3,23,186.3,20,186.3,13.8z"/>
		<path class="st5" d="M224.2,21.9L224.2,21.9l-6.2,1.2c-0.4-1.2-0.9-2.2-1.5-3.4l-4.7-8h1.4c2.6,0,4-1.1,4-3.7c0-2.2-1.4-3.6-4-3.6
			l-2.1,0V18c0,2.4,0.8,3.8,1.5,4.3v0.1h-7.3v-0.1c0.8-0.5,1.6-2,1.6-4.5v-12c0-2.4-0.8-3.8-1.6-4.3V1.5h8.6c4.8,0,7.6,2.4,7.6,6.4
			c0,3.2-1.6,5.2-4.1,6l2.8,4.6C221.4,20.2,222.7,21.4,224.2,21.9z"/>
	</g>
</g>
</svg>
