<?xml version="1.0" encoding="utf-8"?>
<!-- Generator: Adobe Illustrator 25.1.0, SVG Export Plug-In . SVG Version: 6.00 Build 0)  -->
<svg version="1.1" id="Layer_1" xmlns="http://www.w3.org/2000/svg" xmlns:xlink="http://www.w3.org/1999/xlink" x="0px" y="0px"
	 viewBox="0 0 237.98 75.2" style="enable-background:new 0 0 237.98 75.2;" xml:space="preserve">
<style type="text/css">
	.st0{display:none;}
	.st1{display:inline;}
	.st2{display:inline;fill:none;stroke:#EC008C;stroke-width:0.25;stroke-miterlimit:3.8636;stroke-dasharray:3,2;}
	.st3{fill:none;stroke:#EC008C;stroke-width:0.25;stroke-miterlimit:3.8636;stroke-dasharray:3,2;}
</style>
<g id="Design">
</g>
<g id="Emboss" class="st0">
	<g class="st1">
		<g>
			<path d="M120,38.2L120,38.2L120,38.2c0.3,0.2,0.7,0.3,0.9,0.4l0.7,0.2v2.4h-8.5v-2.5l0.7-0.2c0.2,0,0.7-0.2,0.9-0.3
				c0.1-0.1,0.1-0.2,0.1-0.3c0-0.2,0-0.4,0.1-0.6c0-0.3,0-0.6,0-0.9v-3.3v-9.7c0-1.9-0.6-4.2-2.7-3.3c0,0,0,0-0.1,0.1l-0.1,0.1l0,0
				v0.1c0,0.1,0,0.1,0.1,0.2l0,0c0.2,0.3,0.4,0.6,0.4,1c0,0.2,0,0.4-0.1,0.7c0,0.1-0.1,0.3-0.2,0.4c-0.3,0.7-1,0.9-1.7,0.8
				c-2.3-0.5-1.7-3.9,0.3-4.8c1.4-0.8,2.1-0.5,5.9-0.5h5v2.5l-0.7,0.2c-0.2,0.1-0.5,0.1-0.8,0.2l-0.1,0.1l0,0l0,0
				c0,0.1-0.1,0.3-0.1,0.4c0,0.2,0,0.4-0.1,0.5c0,0.3,0,0.6,0,0.9v13.4c0,0.3,0,0.6,0,0.9c0,0.2,0,0.3,0,0.5
				C119.9,37.9,120,38.1,120,38.2z"/>
		</g>
		<g>
			<path d="M135.6,37.9h3.1c0.3,0,0.6,0,1-0.1c0.2,0,0.3-0.1,0.5-0.1l0,0c0.1-0.1,0.2-0.1,0.3-0.2c0.1-0.2,0.3-0.3,0.3-0.5l0,0l0,0
				c0.2-0.3,0.3-0.7,0.4-1c0.2-0.7,0.4-1.4,0.5-2l0.2-0.8h3.4l-0.5,8h-15.9v-2.5l0.7-0.2c0.2,0,0.7-0.2,0.9-0.3
				c0.1-0.1,0.1-0.2,0.1-0.3c0-0.2,0.1-0.4,0.1-0.6c0-0.3,0-0.6,0-0.9V24.7v-1.3c0-1.9-0.6-4.2-2.7-3.3c0,0,0,0-0.1,0.1l-0.1,0.1
				l0,0v0.1c0,0.1,0,0.1,0.1,0.2l0,0c0.2,0.3,0.4,0.6,0.4,1c0,0.2,0,0.4-0.1,0.7c0,0.1-0.1,0.3-0.2,0.4c-0.3,0.7-1,0.9-1.7,0.8
				c-2.3-0.5-1.7-3.9,0.3-4.8c1.3-0.8,2-0.5,5.8-0.5h5v2.5l-0.7,0.2c-0.2,0.1-0.6,0.1-0.8,0.3l0,0l0,0c-0.1,0-0.1,0.1-0.1,0.1
				c0,0.1-0.1,0.3-0.1,0.3l0,0c0,0.2,0,0.4-0.1,0.5c0,0.3,0,0.6,0,0.9C135.6,23,135.6,37.9,135.6,37.9z"/>
		</g>
		<g>
			<path d="M35.5,30.4l-1.6-5.3l-1.2,3.5c0.3,0.2,0.7,0.3,1,0.5C34.3,29.5,34.9,29.9,35.5,30.4L35.5,30.4z M32.1,30.2l-0.6,1.6
				l-0.7,2l-0.5,1.3c-0.1,0.3-0.2,0.6-0.3,1c-0.1,0.2-0.1,0.4-0.2,0.6c-0.1,0.3-0.1,0.6-0.1,0.9c0,0.2,0,0.5,0.2,0.6
				c0.2,0.2,0.7,0.3,0.9,0.3l0.8,0.1v2.6h-8.5v-2.6l0.8-0.1c0.4-0.1,0.7-0.3,0.9-0.6c0.5-0.6,0.8-1.5,1.1-2.2l2.4-6.4
				c-0.3,0-0.5,0-0.8,0c-1.3,0-2.3,0.3-3,0.8c0,0,0,0.1-0.1,0.1c0,0-0.1,0.1-0.1,0.2c0,0,0,0,0,0.1v0.1c0,0.1,0.1,0.2,0.2,0.2l0,0
				c0.4,0.3,0.7,0.6,1,1.1c0.1,0.3,0.2,0.6,0.2,0.9c0,0.2,0,0.4-0.1,0.6c-0.1,0.3-0.2,0.6-0.4,0.8s-0.4,0.4-0.7,0.6
				c-0.3,0.1-0.5,0.2-0.8,0.3c-0.1,0-0.2,0-0.3,0c-0.2,0-0.4,0-0.6-0.1c-0.4-0.1-0.8-0.3-1.1-0.6s-0.5-0.7-0.6-1.1l0,0
				c0-0.1,0-0.2,0-0.3s0-0.2,0-0.3c0-0.7,0.2-1.4,0.5-2s0.8-1.2,1.4-1.6c0.6-0.5,1.3-0.8,2.1-1.1s1.6-0.4,2.4-0.4c0.5,0,1,0,1.5,0.1
				l3.6-9.6h3.9l5.6,17.8c0.2,0.6,0.4,1.2,0.6,1.7c0.1,0.2,0.3,0.5,0.5,0.7s0.5,0.3,0.7,0.3l0.7,0.2v2.4h-9.1v-2.5l0.8-0.2
				c0.3-0.1,0.7-0.1,0.9-0.3c0.1,0,0.1-0.1,0.1-0.1l0,0c0-0.1,0.1-0.3,0.1-0.4c0-0.3,0-0.6-0.1-0.9c-0.1-0.4-0.2-0.9-0.3-1.3l0,0
				l-0.3-0.9c-0.4-0.8-1-1.6-1.7-2.3C34.1,31.4,33.2,30.7,32.1,30.2z"/>
		</g>
		<g>
			<path d="M49.8,18.2h6c1.7,0,3.5,0.1,5.1,0.7c1.3,0.5,2.5,1.1,3.5,2.1c1,1,1.7,2.2,2.2,3.5c0.5,1.5,0.7,3.2,0.7,4.8
				s-0.2,3.3-0.6,4.9c-0.4,1.3-1,2.6-1.9,3.7c-0.8,0.9-1.7,1.6-2.7,2.2c-0.2,0.1-0.3,0.2-0.5,0.3c-0.3,0.2-0.6,0.4-0.9,0.5
				c-0.8,0.3-1.6,0.5-2.5,0.5h-3.4h-1.1h-5.5v-2.5l0.7-0.2c0.2-0.1,0.6-0.1,0.8-0.3l0,0c0.1,0,0.1-0.1,0.1-0.1
				c0.1-0.1,0.1-0.3,0.1-0.4c0-0.2,0-0.4,0-0.5c0-0.3,0-0.6,0-0.9v-0.9V23.5c0-1.9-0.6-4.2-2.7-3.3c0,0,0,0-0.1,0.1L47,20.4l0,0v0.1
				c0,0.1,0,0.1,0.1,0.2l0,0c0.2,0.3,0.4,0.6,0.4,1c0,0.2,0,0.4-0.1,0.7c0,0.1-0.1,0.3-0.2,0.4c-0.3,0.7-1,0.9-1.7,0.8
				c-2.3-0.5-1.7-3.9,0.3-4.8C46.9,18.1,47.5,18.2,49.8,18.2L49.8,18.2L49.8,18.2z M61.8,33.5L61.8,33.5L61.8,33.5
				c0.1-0.4,0.2-0.8,0.2-1.2c0.1-0.9,0.2-1.8,0.2-2.7c0-1.6-0.2-3.3-0.8-4.8c-0.5-1-1.2-1.9-2.2-2.5c-1.1-0.6-2.3-0.8-3.5-0.8
				c-0.3,0-0.7,0-1,0v8.4c0.1,0,0.1,0,0.2,0c0.2,0,0.4,0,0.6,0l0,0c0.1,0,0.2,0,0.3,0h0.1c0.1,0,0.2,0,0.3,0h0.1
				c0.2,0,0.3,0,0.5,0.1c0.1,0,0.3,0.1,0.4,0.1c0.1,0,0.3,0.1,0.4,0.1c0.1,0.1,0.3,0.1,0.4,0.1l0,0c0.1,0,0.1,0.1,0.2,0.1h0.1
				c0,0,0,0,0.1,0h0.1c0.2,0.1,0.5,0.3,0.7,0.5c0.5,0.4,0.8,0.8,1.1,1.2c0.1,0.3,0.3,0.5,0.4,0.8c0.1,0.4,0.2,0.8,0.2,1.2
				c0,0.3,0,0.6-0.1,0.9c0,0.1-0.1,0.2-0.1,0.2c0,0.1-0.1,0.1-0.1,0.2c0,0.1,0,0.1-0.1,0.2l0,0c0,0.1-0.1,0.2-0.2,0.3
				c-0.1,0.3-0.2,0.4-0.3,0.5c-0.3,0.3-0.6,0.5-1,0.7c-0.2,0.1-0.5,0.1-0.7,0.1s-0.4,0-0.6-0.1c-0.1,0-0.2-0.1-0.3-0.1
				s-0.2-0.1-0.3-0.1c-0.4-0.2-0.7-0.6-0.9-1c0-0.4-0.1-0.7-0.1-1c0-0.2,0-0.4,0.1-0.6c0.1-0.3,0.2-0.6,0.4-0.8s0.4-0.4,0.6-0.6
				c0,0,0,0,0.1,0c0,0,0,0,0.1,0c0.2-0.1,0.4-0.2,0.4-0.4v-0.1c0-0.1-0.1-0.3-0.3-0.4l-0.1-0.1l-0.1-0.1c-0.2-0.1-0.5-0.2-0.8-0.2
				c-0.3-0.1-0.6-0.1-0.8-0.1c-0.5,0-0.9,0.1-1.2,0.2c-0.7,0.2-1.2,0.6-1.7,1.1s-0.8,1.1-1,1.7c0,0,0,0,0,0.1v0.1
				c-0.1,0.3-0.1,0.5-0.1,0.8c0,0.2,0,0.3,0,0.5s0.1,0.3,0.1,0.5c0.2,0.7,0.5,1.3,1,1.8C56.2,41.9,61,37.5,61.8,33.5L61.8,33.5z"/>
		</g>
		<g>
			<path d="M-1.5,18.2h3.7L7,31.5l5.4-13.3h6.9v2.5l-0.7,0.2c-0.2,0.1-0.5,0.1-0.8,0.2c-0.1,0-0.1,0.1-0.2,0.1
				c0,0.1-0.1,0.3-0.1,0.4c0,0.2,0,0.4-0.1,0.5c0,0.3,0,0.6,0,0.9v13.4c0,0.5,0,0.9,0.1,1.4c0,0.1,0.1,0.3,0.1,0.4l0.1,0.1l0,0
				c0.2,0.1,0.6,0.2,0.8,0.3l0.7,0.2v2.4h-8.4v-2.5l0.7-0.2c0.2,0,0.7-0.2,0.9-0.3c0.1-0.1,0.1-0.2,0.1-0.3c0-0.2,0.1-0.4,0.1-0.6
				c0-0.3,0-0.7,0-1v-5.8c0-1,0-2.1,0-3.1L8.1,38.8H5L0.8,27.5c0,1.1,0,2.2,0,3.3v5.7c0,0.5,0,0.9,0.1,1.4c0,0.1,0,0.3,0.1,0.4l0,0
				l0,0l0.1,0.1l0,0c0.2,0.1,0.6,0.2,0.8,0.3l0.7,0.2v2.3H-5v-2.5l0.7-0.2c0.2,0,0.7-0.2,0.9-0.3c0.1-0.1,0.1-0.2,0.1-0.3
				c0-0.2,0-0.4,0.1-0.6c0-0.3,0-0.6,0-0.9v-3.3v-9.7c0-1.9-0.6-4.2-2.7-3.3c0,0,0,0-0.1,0.1l-0.1,0.1l0,0v0.1c0,0.1,0,0.1,0.1,0.2
				l0,0c0.2,0.3,0.4,0.6,0.4,1c0,0.2,0,0.4-0.1,0.7c0,0.1-0.1,0.3-0.2,0.4c-0.3,0.7-1,0.9-1.7,0.8c-2.3-0.5-1.7-3.9,0.3-4.8
				C-6,17.9-5.3,18.2-1.5,18.2z"/>
		</g>
		<g>
			<path d="M195.4,18.1h2.9l8,13.2l0,0c0-1.7-0.1-3.4-0.1-5.1v-3.3c0-0.5,0-1-0.1-1.4c0-0.1,0-0.3-0.1-0.3l0,0l0,0l-0.1-0.1
				c-0.2-0.1-0.5-0.2-0.8-0.3l-0.7-0.2v-2.5h7.6v2.5l-0.7,0.2c-0.2,0.1-0.6,0.1-0.8,0.2l-0.1,0.1l0,0l0,0c0,0.1-0.1,0.3-0.1,0.3l0,0
				c0,0.2,0,0.4-0.1,0.5c0,0.3,0,0.6,0,0.9v18.4h-3.5l-9-14.9c0-0.1-0.1-0.1-0.1-0.2c0,0.3,0,0.5,0,0.8c0,2.1,0,4.1,0,6.2v3.2
				c0,0.5,0,0.9,0.1,1.4c0,0.1,0,0.3,0.1,0.4l0,0l0,0l0.1,0.1l0,0c0.2,0.1,0.6,0.2,0.8,0.3l0.7,0.2v2.5h-7.6v-2.5l0.7-0.2
				c0.2,0,0.7-0.2,0.9-0.3c0.1-0.1,0.1-0.2,0.1-0.3c0-0.2,0-0.4,0.1-0.6c0-0.3,0-0.6,0-0.9V33v-9.7c0-1.9-0.6-4.2-2.7-3.3
				c0,0,0,0-0.1,0.1l-0.1,0.1l0,0v0.1c0,0.1,0,0.1,0.1,0.2l0,0c0.2,0.3,0.4,0.6,0.4,1c0,0.2,0,0.4-0.1,0.7c0,0.1-0.1,0.3-0.2,0.4
				c-0.3,0.7-1,0.9-1.7,0.8c-2.3-0.5-1.7-3.9,0.3-4.8C190.9,17.8,191.5,18.1,195.4,18.1z"/>
		</g>
		<g>
			<path d="M176.6,41.2c-0.1,0-0.1,0-0.2,0h-0.1c-0.5,0-1,0-1.4-0.1c-0.7-0.1-1.4-0.3-2-0.5c-1.2-0.5-2.2-1.2-3-2.2
				c-0.9-1.1-1.5-2.3-1.9-3.7c-0.5-1.6-0.6-3.4-0.6-5.1c0-2.1,0.3-4.3,1.1-6.3c0.7-1.7,1.8-3.2,3.4-4.2c1.5-1,3.3-1.5,5.1-1.5
				s3.6,0.4,5.2,1.4c1.5,1,2.6,2.4,3.2,4c0.8,1.9,1,4.1,1,6.1c0,2.2-0.3,4.5-1.2,6.5c-0.7,1.7-1.9,3.2-3.5,4.2
				C180.2,40.8,178.5,41.2,176.6,41.2L176.6,41.2z M169.4,31.7C169.4,31.7,169.4,31.8,169.4,31.7v0.1v0.1V32l0,0c0,0,0,0.1,0.1,0.3
				c0,0,0,0,0,0.1v0.1v0.1l0.2,0.5c0.5,1.1,1.3,2.1,2.5,2.8c1.1,0.7,2.4,1.1,3.9,1.1h0.1h0.1h0.1c1,0,2-0.4,2.9-1
				c0.5-0.4,1-0.9,1.4-1.5s0.7-1.3,0.9-2.1c0.1-0.3,0.1-0.6,0.2-0.9c0-0.3,0.1-0.7,0.1-1c0-0.5-0.1-1-0.2-1.4l0,0
				c-0.1-0.3-0.2-0.5-0.3-0.8c-0.3-0.4-0.6-0.8-0.9-1.1c-0.6-0.6-1.3-1-2.1-1.2c-0.2,0-0.4-0.1-0.6-0.1s-0.4,0-0.6,0
				c-0.3,0-0.7,0-1,0.1h-0.1c0,0,0,0-0.1,0c-0.8,0.2-1.5,0.6-2.1,1.1c-0.6,0.6-1,1.2-1.3,2c-0.1,0.4-0.2,0.9-0.2,1.5
				c0,0.3,0,0.7,0.1,1s0.2,0.6,0.3,0.9l0.1,0.1c0,0,0,0.1,0.1,0.1c0.1,0.2,0.3,0.3,0.4,0.3h0.1c0.2,0,0.4-0.2,0.5-0.5
				c0,0,0,0,0.1-0.1c0,0,0,0,0.1-0.1c0.2-0.3,0.4-0.5,0.7-0.8c0.3-0.2,0.6-0.4,1-0.4c0.2,0,0.4-0.1,0.7-0.1c0.4,0,0.7,0.1,1,0.2
				c0.5,0.2,1,0.6,1.2,1.1c0.1,0.1,0.1,0.2,0.2,0.4c0,0.1,0.1,0.2,0.1,0.4s0.1,0.4,0.1,0.7s0,0.5-0.1,0.8c-0.2,0.5-0.4,0.9-0.8,1.2
				c-0.1,0.1-0.2,0.1-0.3,0.2c-0.1,0.1-0.2,0.1-0.3,0.2l0,0c-0.1,0-0.1,0.1-0.2,0.1c-0.1,0-0.1,0-0.2,0.1c-0.1,0-0.2,0-0.3,0.1
				c-0.3,0.1-0.7,0.1-1,0.1c-0.5,0-1-0.1-1.5-0.2c-0.3-0.1-0.7-0.3-1-0.4c-0.5-0.3-1-0.7-1.5-1.3c-0.2-0.3-0.4-0.5-0.5-0.8v-0.1
				c0,0,0-0.1-0.1-0.1c0,0,0,0-0.1-0.1c0-0.1-0.1-0.2-0.1-0.3l0,0c0-0.2-0.1-0.3-0.2-0.5c-0.1-0.1-0.1-0.3-0.2-0.5
				c0-0.2-0.1-0.3-0.1-0.5s0-0.4-0.1-0.5v0.1c0-0.1,0-0.2,0-0.4l0,0c0-0.1,0-0.2,0-0.3l0,0c0-0.3,0-0.5,0.1-0.7
				c0-0.2,0.1-0.5,0.1-0.7c0-0.3,0.1-0.5,0.2-0.8c0-0.1,0.1-0.2,0.1-0.3l0,0C170.9,28.1,169.4,29.6,169.4,31.7L169.4,31.7z
				 M172.8,25.5l0.5-0.4c0.6-0.4,1.2-0.7,1.8-0.9c0.6-0.2,1.4-0.3,2.1-0.3s1.4,0.1,2.1,0.3c0.5,0.2,0.9,0.4,1.4,0.6
				c0-0.1,0-0.1-0.1-0.2c-0.3-1-0.8-2.1-1.6-2.8c-0.6-0.5-1.3-0.8-2.2-0.8c-0.7,0-1.3,0.1-1.9,0.5c-0.6,0.4-1,0.9-1.3,1.5
				C173.2,23.7,172.9,24.6,172.8,25.5z"/>
		</g>
		<g>
			<path d="M152.7,35c0.1,0.6,0.3,1.3,0.7,1.8c0.2,0.4,0.6,0.6,1,0.8c0.5,0.2,1.2,0.3,1.8,0.3c0.7,0,1.6-0.1,2.1-0.7
				c0.5-0.5,0.7-1.3,0.7-2.1c0-0.5-0.1-1.1-0.3-1.5c-0.2-0.5-0.6-0.8-1-1.2c-0.3-0.3-0.7-0.5-1.1-0.7c-0.5-0.3-1-0.6-1.6-0.8
				c-1.1-0.5-2.1-1.1-3.1-1.9c-0.7-0.6-1.4-1.3-1.8-2.2c-0.4-0.8-0.6-1.7-0.6-2.6c0-1.3,0.3-2.5,1-3.5c0.7-1.1,1.7-1.8,2.8-2.3
				c1.3-0.6,2.6-0.8,4-0.8c0.8,0,1.6,0,2.4,0.1c1,0.1,2,0.3,3,0.6l0.7,0.2v5.9h-3.3l-0.2-0.7c-0.2-0.5-0.4-1.2-0.8-1.7
				c-0.2-0.3-0.5-0.6-0.9-0.7c-0.5-0.2-1-0.2-1.5-0.2s-1,0.1-1.4,0.3c-0.4,0.2-0.6,0.4-0.9,0.8c-0.2,0.2-0.3,0.7-0.3,1.1
				c0,0.5,0.1,1,0.3,1.4s0.6,0.8,1,1.1c0.3,0.2,0.6,0.4,0.9,0.6c0.5,0.3,0.9,0.5,1.4,0.7c1.1,0.6,2.3,1.2,3.3,1.9
				c0.8,0.6,1.5,1.4,2,2.2c0.5,0.9,0.7,2,0.7,3c0,1.1-0.2,2.2-0.6,3.2c-0.4,0.9-1,1.6-1.7,2.2c-0.8,0.6-1.6,1-2.5,1.2
				c-1,0.2-2,0.3-3,0.3c-2,0-4-0.4-5.9-0.8l-0.8-0.1v-6h3.3L152.7,35z"/>
		</g>
		<g>
			<path d="M105.1,20.9c-0.1,0.1-0.2,0.2-0.3,0.3c-0.2,0.2-0.3,0.6-0.4,0.8c-0.3,0.6-0.5,1.2-0.7,1.8l-6,17.4H94l-3.6-14.5
				l-4.2,14.5h-4l-4.7-17.5c-0.2-0.5-0.3-1.1-0.5-1.6c-0.1-0.3-0.2-0.6-0.4-0.9c-0.1-0.1-0.1-0.2-0.2-0.3c-0.1-0.1-0.3-0.1-0.5-0.2
				l-0.7-0.2V18h8.6v2.5L83,20.6c-0.2,0-0.7,0.2-0.9,0.3c0,0.2,0,0.4,0,0.5c0,0.4,0,0.7,0.1,1.1c0.1,0.5,0.2,1.1,0.4,1.6l2.2,8.8
				L89,18.1h4.1l3.4,14.8l2.6-8.4c0.2-0.6,0.4-1.2,0.5-1.8c0.1-0.3,0.1-0.7,0.1-1c0-0.1,0-0.6-0.1-0.7c-0.1-0.2-0.6-0.2-0.8-0.3
				l-0.7-0.1V18h8.1v2.4l-0.7,0.2C105.4,20.8,105.2,20.8,105.1,20.9z"/>
		</g>
	</g>
</g>
<g id="Guide" class="st0">
	<path class="st2" d="M373.3,7.3c0-10.2,8.2-18.4,18.4-18.4h238.1c10.2,0,18.4,8.2,18.4,18.4v127.6c0,10.2-8.2,18.4-18.4,18.4H391.7
		c-10.2,0-18.4-8.2-18.4-18.4L373.3,7.3L373.3,7.3z"/>
	<g class="st1">
		<path class="st3" d="M205.2,120.4H0c-19.6,0-35.4-15.9-35.4-35.4v-95.8c0-19.6,15.9-35.4,35.4-35.4h205.2
			c19.6,0,35.4,15.9,35.4,35.4V85C240.6,104.6,224.8,120.4,205.2,120.4z"/>
		<path class="st3" d="M205.2,114.8H0c-16.4,0-29.8-13.3-29.8-29.8v-95.8c0-16.4,13.3-29.8,29.8-29.8h205.2
			c16.4,0,29.8,13.3,29.8,29.8V85C234.9,101.5,221.6,114.8,205.2,114.8z"/>
		<path class="st3" d="M202.9,97.8H2.2c-8.3,0-15-6.7-15-15V-8.5c0-8.3,6.7-15,15-15h200.7c8.3,0,15,6.7,15,15v91.3
			C217.9,91,211.2,97.8,202.9,97.8z"/>
	</g>
</g>
<g>
	<path d="M29.46,35.94c-0.22,0.17-0.76-0.02-1.13-0.41c-0.42-0.39-0.56-0.85-0.29-1.02c1.64-1.16,3.07-4.49,3.28-7.59
		c0.08-1.15-0.03-2.23-0.36-3.15c-0.21-0.69-0.6-1.22-1.1-1.5c-1.2-0.64-3.1-0.64-6.04,0.46l-0.41,0.14
		c-6.13,2.42-12.27,7.97-16.44,14.32C2.89,43.42,0.79,50.43,2.74,55.7l0.07,0.18c0.37,0.87,0.77,1.49,1.28,1.92
		c1.35,1.15,3.5,1.27,6.05,0.63c2.74-0.65,5.81-2.19,8.8-4.2c5.39-3.58,10.4-8.59,12.61-12.66c0.12-0.25,0.6-0.16,1.02,0.23
		c0.46,0.33,0.7,0.79,0.58,1.04c-0.16,0.3-3.42,7.18-7.26,14.4c1.01,0.61,1.89,1.85,2.57,3.83c0.18,0.41-0.08,0.63-0.48,0.48
		c-0.44-0.15-0.92-0.62-1.05-0.99c-0.46-1.24-1.04-1.89-1.69-2.16c-3.93,7.33-8.33,14.65-10.53,15.44c-1.1,0.39-1.81-0.06-2.26-1.25
		c-0.45-1.19,0.82-4.69,2.85-8.07c1.99-3.38,4.71-6.64,7.18-7.55c0.5-0.19,0.97-0.29,1.44-0.29c1.24-2.31,2.44-4.61,3.47-6.66
		c-2.08,2.01-4.54,4.01-7.04,5.69c-3.03,2.01-6.15,3.56-8.98,4.27c-3.02,0.73-5.8,0.43-7.88-1.35c-0.94-0.81-1.71-1.87-2.22-3.2
		l-0.12-0.23c-2.08-5.64,0.05-12.88,4.25-19.33c4.21-6.4,10.44-12.01,16.66-14.48l0.41-0.14c3.25-1.23,5.64-1.13,7.3-0.2
		c1.36,0.77,2.28,1.91,2.75,3.24c0.39,1.1,0.52,2.37,0.46,3.66C32.74,31.19,31.19,34.72,29.46,35.94z M14.04,71.96
		c2.07-1.63,5.42-7.09,8.64-12.97c-2.06,1.3-4.16,4.02-5.83,6.8C15.42,68.16,14.37,70.5,14.04,71.96z"/>
	<path d="M40.82,48.87c-2.1,1.35-4.56,1.88-4.7,1.89c-2.52,7.19,9.6,0.09,10.8-2.69c0.11-0.3,0.55-0.67,1.01-0.34
		c0.41,0.34,0.43,0.53,0.32,0.82c-1.09,2.44-7.92,8.25-11.35,6.74c-1.69-0.74-2.86-2.52-2.67-4.39c0.12-1.2,0.7-2.49,1.54-3.67
		c0.84-1.13,1.82-2.22,2.78-3.08c1.27-1.08,2.48-1.77,3.01-1.72c0.43,0.05,0.83,0.25,1.2,0.59c0.52,0.47,0.77,1.06,0.73,1.64
		c0,0.43-0.15,0.87-0.34,1.36C42.73,47.06,41.89,48.19,40.82,48.87z M37.4,48.45c0.64-0.25,1.32-0.61,2.04-1.01
		c0.94-0.62,1.68-1.69,2.11-2.63c0.08-0.2,0.11-0.34,0.18-0.54c-0.49,0.29-1.07,0.72-1.72,1.31C39.14,46.37,38.15,47.38,37.4,48.45z
		"/>
	<path d="M48.39,45.31c0.17-0.16,0.66-0.02,1.08,0.37c0.42,0.38,0.56,0.85,0.39,1.05c-0.13,0.11-0.26,0.22-0.35,0.32
		c-0.9,0.99-1.55,2.53-1.93,4.04c-0.25,1.26-0.33,2.41-0.05,2.86c0.24,0.07,0.53,0.04,0.89-0.09c0.41-0.18,0.9-0.52,1.32-1.03
		c0.6-0.63,1.13-1.54,1.59-2.68c0.27-0.64,0.44-1.33,0.56-2c-0.92-0.62-1.61-1.41-2.07-2.22c-0.46-0.81-0.69-1.64-0.7-2.26
		c0.03-0.67,0.26-1.17,0.82-1.32c0.42-0.09,0.8-0.03,1.2,0.12c0.64,0.27,1.22,0.78,1.62,1.45c0.33,0.49,0.53,1.04,0.69,1.64
		c0.15,0.6,0.23,1.31,0.2,2.02c1.05,0.08,2.62,0.12,4.18-0.99c0.22-0.17,0.44-0.38,0.86,0.01c0.37,0.39,0.36,0.73,0.14,0.89
		c-2.09,1.44-3.72,1.79-5.23,1.42c-0.11,0.82-0.31,1.69-0.66,2.44c-0.46,1.14-1.02,2.15-1.67,2.83c-0.52,0.53-1,0.96-1.5,1.15
		c-0.59,0.25-1.21,0.26-1.85-0.01c-0.35-0.16-0.7-0.36-1.02-0.66c-0.1-0.08-0.21-0.17-0.31-0.25c-0.86-1.01-0.99-2.75-0.63-4.45
		c0.36-1.6,1.1-3.24,2.04-4.29C48.14,45.57,48.26,45.42,48.39,45.31z M52.03,46.99c0.02-0.76-0.06-1.52-0.21-2.12
		c-0.09-0.42-0.22-0.79-0.34-1.01c-0.05,0,0.05,0,0.05,0c-0.05-0.04-0.19-0.03-0.33,0.03c-0.28,0.03-0.39,0.32-0.4,0.75
		c0,0.43,0.14,0.94,0.43,1.43C51.4,46.44,51.67,46.74,52.03,46.99z"/>
	<path d="M60.21,41.43c0.12-0.25,0.6-0.15,1.02,0.18c0.46,0.33,0.7,0.83,0.58,1.08l-1.46,2.95c1.57-0.96,3.75-1.94,4.81-0.86
		c0.47,0.43,0.44,1.52,1.05,1.51c0.9-0.04,2.2-0.36,3.43-0.86c0.27-0.12,0.53-0.39,0.86,0.01c0.38,0.44,0.2,0.6-0.08,0.67
		c-1.32,0.56-3.53,1.25-4.53,1.26c-1.23,0.03-1.64-0.26-2.8-1.38c-0.79-0.78-4.61,3.36-4.61,3.36c-0.09,0.06-2.12,4.44-2.32,4.89
		c-0.12,0.25-0.6,0.15-1.02-0.18c-0.46-0.33-0.7-0.83-0.58-1.08L60.21,41.43z"/>
	<path d="M95.36,52.33c0.38,0.01,0.89,0.34,1.17,0.79c0.28,0.4,0.26,0.73-0.11,0.77c-10.06,0.14-17.38,1.06-22.62,2.34
		c-2.62,5.63-5.64,11.11-7.24,11.27c-2.17,0.17-4.17-0.82-5.27-2.37c-0.61-0.89-0.91-1.95-0.68-3.02c0.24-0.97,0.85-1.99,2.03-3
		c1.79-1.56,4.87-3.1,9.69-4.34c0.86-1.84,2.21-5.02,2.94-6.71c-1.31,1.65-4.18,3.36-5.24,3.23c-1.73-0.21-2.14-0.97-2-2.46
		c0.29-3.31,4.99-8.1,8.37-4.68c0.91-1.33,1.53-2.34,1.53-2.34c0.12-0.25,0.56-0.15,0.96,0.14c0.46,0.33,0.7,0.83,0.63,1.08
		l-0.43,0.95l-0.04,0.05c0,0.05-1.94,4.9-4.3,10.21C79.81,53.16,86.58,52.44,95.36,52.33z M71.35,56.9c-3.45,1.1-5.8,2.33-7.24,3.62
		c-1.1,0.92-1.67,1.88-1.87,2.7c-0.16,0.78-0.01,1.38,0.28,1.82c0.49,0.62,1.57,0.98,2.89,0.9C66.68,65.82,69.07,61.69,71.35,56.9z
		 M75.82,45.01c-2.39-2.57-7.88,5.34-5.51,5.25C71.59,50.23,74.88,47.57,75.82,45.01z"/>
	<path d="M86.72,44.3c-2.1,1.35-4.56,1.88-4.7,1.89c-2.52,7.19,9.6,0.09,10.8-2.69c0.11-0.3,0.55-0.67,1.01-0.34
		c0.41,0.34,0.43,0.53,0.32,0.82c-1.09,2.44-7.92,8.25-11.35,6.73c-1.69-0.74-2.86-2.52-2.67-4.39c0.12-1.2,0.7-2.49,1.54-3.67
		c0.84-1.13,1.82-2.22,2.78-3.08c1.27-1.08,2.48-1.77,3.01-1.72c0.43,0.05,0.83,0.25,1.2,0.59c0.52,0.47,0.77,1.06,0.73,1.64
		c0,0.43-0.15,0.87-0.34,1.36C88.63,42.5,87.79,43.63,86.72,44.3z M83.3,43.88c0.64-0.25,1.32-0.61,2.04-1.01
		c0.94-0.62,1.68-1.69,2.11-2.63c0.08-0.2,0.11-0.34,0.18-0.54c-0.49,0.29-1.07,0.72-1.72,1.31C85.05,41.81,84.05,42.81,83.3,43.88z
		"/>
	<path d="M164.4,7.22c-0.01,0.33-0.44,0.38-0.89,0.09c-0.25-0.16-0.47-0.43-0.63-0.65l-11.49,26.32c2.67-0.41,4.07-0.64,4.12-0.65
		c0.28-0.08,0.83,0.25,1.16,0.64c0.33,0.44,0.32,0.82,0,0.9c0,0-2.15,0.36-6.08,0.94l-9.37,21.41c-0.71,1.92-1.56,3.86-2.51,5.81
		c-0.12,0.25-0.55,0.15-1.01-0.14c-0.42-0.39-0.7-0.83-0.58-1.08c0.85-1.94,1.66-3.87,2.51-5.81c2.72-7.06,3.78-13.58,3.28-19.09
		c-4.45,0.63-9.84,1.36-16.04,2.07l-5.03,10.1c-0.12,0.2-0.6,0.16-1.02-0.18c-0.47-0.38-0.7-0.83-0.58-1.08l4.28-8.55
		c-3.75,0.47-7.75,0.91-12.03,1.34c-7.43,0.79-12.26-0.49-14.67-2.72c-1.36-1.24-1.98-2.7-1.94-4.22c0.06-1.34,0.58-2.81,1.62-4.2
		c3.05-4.2,10.33-8.39,20.78-9.81c6.1-0.8,11.2-0.16,15.22,1.62l5.4-10.7c0.12-0.25,0.56-0.15,1.02,0.18
		c0.41,0.34,0.7,0.83,0.58,1.08l-5.24,10.35c2.47,1.42,4.42,3.31,5.97,5.63c1.4,2.09,2.35,4.56,2.91,7.27
		c1.87-0.28,3.51-0.54,4.96-0.73l13.93-31.93c0.07-0.24,0.45-0.28,0.86,0.01c0.45,0.24,0.83,0.72,0.82,1.06L164.4,7.22z
		 M125.37,36.52l7.61-15.2c-3.56-1.4-8.07-1.86-13.56-1.12c-10.26,1.4-17.41,5.49-20.38,9.58c-0.96,1.33-1.49,2.67-1.52,3.86
		c-0.04,1,0.29,1.92,0.97,2.56c1.83,1.72,5.96,2.59,12.87,1.9C116.4,37.55,121.1,37.03,125.37,36.52z M134.77,22.14l-7.05,14.1
		c5.82-0.72,10.83-1.41,14.96-1.96c-0.47-2.85-1.39-5.37-2.79-7.47C138.61,24.89,136.93,23.3,134.77,22.14z M144.37,44.13l3.91-8.94
		c-1.17,0.16-2.48,0.34-3.89,0.53C144.74,38.29,144.74,41.14,144.37,44.13z"/>
	<path d="M167.87,34.95c0.24,0.45,0.12,0.75-0.26,0.69c-0.39-0.06-0.9-0.43-1.13-0.84c-1.03-0.8-3.23,0.51-4,1.3
		c-1.6,1.58-2.42,3.38-2.72,5.59c1.6-0.63,5.38-6.05,5.38-6.05c0.17-0.21,0.61-0.11,1.07,0.27c0.37,0.34,0.6,0.75,0.48,1
		c-0.07,0.24-0.51,1.52-0.1,2.81c0.3,1.11,5.91-4.62,5.99-4.68c0.17-0.21,0.52-0.48,0.94-0.14c0.42,0.39,0.41,0.77,0.24,0.97
		c-2.83,3.08-4.5,4.91-5.7,5.7c-2.05,1.34-3.76,0.85-3.95-1.46c-1.53,1.77-3.13,3.4-4.21,3.03c-0.39-0.1-0.7-0.36-1.01-0.61
		c-0.53-0.56-0.78-1.21-0.76-1.92c-0.01-0.57,0.12-1.2,0.34-1.84c0.48-1.38,1.42-2.94,2.54-4.05
		C162.95,32.78,166.8,32.3,167.87,34.95z"/>
	<path d="M174.79,30.03c0.12-0.25,0.6-0.15,1.02,0.18c0.46,0.33,0.7,0.83,0.58,1.08l-1.46,2.95c1.57-0.96,3.75-1.94,4.81-0.86
		c0.47,0.43,0.44,1.52,1.05,1.51c0.9-0.04,2.2-0.36,3.43-0.86c0.27-0.12,0.53-0.39,0.86,0.01c0.38,0.44,0.2,0.6-0.08,0.67
		c-1.32,0.56-3.53,1.25-4.53,1.26c-1.23,0.03-1.64-0.26-2.8-1.38c-0.79-0.78-4.61,3.36-4.61,3.36c-0.09,0.06-2.12,4.44-2.32,4.89
		c-0.12,0.25-0.6,0.15-1.02-0.18c-0.46-0.33-0.7-0.83-0.58-1.08L174.79,30.03z"/>
	<path d="M186.69,28.85c0.12-0.25,0.6-0.15,1.02,0.18c0.46,0.33,0.7,0.83,0.58,1.08l-1.46,2.95c1.57-0.96,3.75-1.94,4.81-0.86
		c0.47,0.43,0.44,1.52,1.05,1.51c0.9-0.04,2.2-0.36,3.43-0.86c0.27-0.12,0.53-0.39,0.86,0.01c0.38,0.44,0.2,0.6-0.08,0.67
		c-1.32,0.56-3.53,1.25-4.53,1.26c-1.23,0.03-1.64-0.26-2.8-1.38c-0.79-0.78-4.61,3.36-4.61,3.36c-0.09,0.06-2.12,4.44-2.32,4.89
		c-0.12,0.25-0.6,0.15-1.02-0.18c-0.46-0.33-0.7-0.83-0.58-1.08L186.69,28.85z"/>
	<path d="M198.9,28.96c0.22-0.21,0.71-0.07,1.12,0.32c0.42,0.39,0.61,0.84,0.39,1.05c-0.95,1-2.44,3.19-3.28,5.27
		c-0.53,1.38-0.41,2.13,0.09,2.32c1.96,0.09,6.67-5.51,6.67-5.56c0.17-0.21,0.46-0.62,0.88-0.23c0.46,0.38,0.29,0.54,0.12,0.75
		c-0.05,0-7.01,9.25-9.39,5.92c-0.78-1.11-0.61-2.74,0.04-4.42C196.38,32.26,197.91,29.96,198.9,28.96z M201.68,27.31
		c-0.17,0.25-0.65,0.11-1.07-0.23c-0.42-0.39-0.65-0.84-0.49-1.09l2.33-3.27c0.17-0.25,0.61-0.11,1.07,0.23
		c0.42,0.39,0.61,0.84,0.49,1.09L201.68,27.31z"/>
	<path d="M204.27,33.75c-0.17,0.21-0.71,0.55-1.12,0.21c-0.42-0.39,0.49-1.33,0.66-1.54l3.1-4.63c0.55-0.72,0.98-1.14,0.98-1.14
		c0.17-0.21,0.66-0.07,1.03,0.32c0.41,0.34,0.65,0.84,0.48,1.04l-1.02,1.19c-0.88,1.23-1.99,3.38-1.26,5.49
		c0.42,1.34,0.38,2.43,0.09,3.27c-0.19,0.45-0.49,0.81-0.79,1.12c-0.31,0.27-0.66,0.49-1.03,0.62c-0.64,0.21-1.31,0.18-1.86-0.05
		c-2.82-1.1-1.62-3.88-1.63-3.92c0.12-0.25,0.55-0.2,1.01,0.14c0.46,0.33,0.7,0.83,0.63,1.08c0,0.05-0.54,1.29-0.44,1.33
		c0.2,0.08,0.57,0.04,0.94-0.09c0.32-0.08,0.64-0.25,0.9-0.52c0.26-0.22,0.51-0.57,0.62-0.92c0.26-0.69,0.32-1.55-0.02-2.61
		c-0.06-0.61-0.49-0.62,0.43-2.8L204.27,33.75z"/>
	<path d="M212.91,28.95c0.17-0.16,0.66-0.02,1.08,0.37c0.42,0.38,0.56,0.85,0.39,1.05c-0.13,0.11-0.26,0.22-0.35,0.32
		c-0.9,0.99-1.55,2.53-1.93,4.04c-0.25,1.26-0.33,2.41-0.05,2.86c0.24,0.07,0.53,0.04,0.89-0.09c0.41-0.18,0.9-0.52,1.32-1.03
		c0.6-0.63,1.13-1.54,1.59-2.68c0.27-0.64,0.44-1.33,0.56-2c-0.92-0.62-1.61-1.41-2.07-2.22c-0.46-0.81-0.69-1.64-0.7-2.26
		c0.03-0.67,0.26-1.17,0.82-1.32c0.42-0.09,0.8-0.03,1.2,0.12c0.64,0.27,1.22,0.78,1.62,1.45c0.33,0.49,0.53,1.04,0.69,1.64
		c0.15,0.6,0.22,1.31,0.2,2.02c1.05,0.08,2.62,0.12,4.18-0.99c0.22-0.17,0.44-0.38,0.86,0.01c0.37,0.39,0.36,0.73,0.14,0.89
		c-2.09,1.44-3.72,1.79-5.23,1.42c-0.11,0.82-0.31,1.69-0.66,2.44c-0.46,1.14-1.02,2.15-1.67,2.83c-0.52,0.53-1,0.95-1.5,1.15
		c-0.59,0.25-1.21,0.26-1.85-0.01c-0.35-0.16-0.7-0.36-1.02-0.66c-0.1-0.08-0.21-0.17-0.31-0.25c-0.86-1.01-0.99-2.75-0.63-4.45
		c0.36-1.6,1.1-3.24,2.04-4.29C212.65,29.21,212.78,29.06,212.91,28.95z M216.55,30.63c0.02-0.76-0.06-1.52-0.21-2.12
		c-0.09-0.42-0.22-0.78-0.34-1.01c-0.05,0,0.05,0,0.05,0c-0.05-0.04-0.19-0.03-0.33,0.03c-0.28,0.03-0.4,0.32-0.4,0.75
		s0.14,0.94,0.43,1.43C215.92,30.07,216.19,30.38,216.55,30.63z"/>
	<path d="M223.51,27.56c0.12-0.25,0.6-0.2,1.01,0.14c0.46,0.33,0.7,0.83,0.58,1.08l-0.97,2.23c2.33-2.37,4.9-4.72,5.96-4.54
		l0.09-0.01c1.45,0.28,1.78,1.15,1.57,2.36c-0.09,0.53-0.36,1.18-0.62,1.91c-0.49,1.28-1.06,2.72-1.06,2.72
		c1.6,0.84,6.24-4.14,6.29-4.14c0.12-0.2,0.58-0.87,1-0.48c0.46,0.33,0.19,0.46,0.02,0.71c0,0-4.52,6.58-7.13,5.22
		c-2.25-1.15-1.42-3.32-0.71-5.25c0.15-0.4,0.3-0.79,0.41-1.18c-2.54,1.68-8.2,8.27-8.37,8.48c-0.12,0.2-0.56,0.1-0.97-0.19
		c-0.42-0.39-0.7-0.83-0.58-1.08L223.51,27.56z"/>
</g>
</svg>
