<?xml version="1.0" encoding="utf-8"?>
<!-- Generator: Adobe Illustrator 24.3.0, SVG Export Plug-In . SVG Version: 6.00 Build 0)  -->
<svg version="1.1" id="Layer_1" xmlns="http://www.w3.org/2000/svg" xmlns:xlink="http://www.w3.org/1999/xlink" x="0px" y="0px"
	 viewBox="0 0 654.8 452.2" style="enable-background:new 0 0 654.8 452.2;" xml:space="preserve">
<style type="text/css">
	.st0{fill:#B39E80;}
	.st1{fill:#CF3339;}
	.st2{fill:#FFFFFF;}
</style>
<g>
	<path class="st0" d="M224.3,199.4c3.1-3.3,3.7-8.4,2.1-14.2l-10.7-39c-1-3.8-3-8.8-6.3-10.6v-0.2h22.4v0.2
		c-2.5,2.1-3.6,6.6-2.4,11.5l5.3,20.6c1.3,5.1,1.9,9.4,2.2,16.7h0.4c1.9-7.6,4.4-13.5,6.5-17.6l9.9-20.2c2.5-5.2,3.8-8.8,4.5-11.6
		h0.5c0.8,2.8,1.9,6.3,4.5,11.6l9,17.6c4.5,9,6,14.1,7.3,20.4h0.4c0.5-7.1,1.6-13.4,2.9-18.9l4.5-18.5c1.3-5.1,0.1-9.2-2.3-11.5
		l0.1-0.2h20.5v0.2c-3.3,1.9-5.4,6.8-6.3,10.7l-9.3,38.9c-1.5,6.3-0.6,10.5,2.1,14.2v0.2h-21.6v-0.2c1.6-2.6,1.7-6.8-0.5-11.5
		l-6.8-14.4c-2-4.3-3.8-10.2-4.3-14.1h-0.4c-1.2,4.9-2.6,8.8-4.1,12l-7.8,16.5c-2.1,4.6-2.2,8.9-0.5,11.5v0.2h-21.8L224.3,199.4
		L224.3,199.4L224.3,199.4z"/>
	<path class="st0" d="M352.4,181.9l-2.6,18.4c-3.4-0.6-5.8-0.7-11.3-0.7h-32.6v-0.2c2.3-1.6,5-6.1,5-13.7v-36.5
		c0-7.7-2.6-12.1-5-13.7v-0.2h33.2c3.7,0,7.8-0.3,9.8-0.7l1.6,16.5l-0.2,0.1c-2.2-4.5-7.3-6.8-14.5-6.8h-12.2v16.3h7
		c7.7,0,10.3-0.1,14.4-0.6l-2.7,15.5h-0.2c-1.6-4.2-4.9-5.8-10.1-5.8h-8.5v20.8h10.1c8.1,0,14.6-3.1,18.6-8.7L352.4,181.9z"/>
	<path class="st0" d="M357.3,197.3l-1.6-15.5l0.2-0.1c5.5,7.2,11.5,9.9,19.1,9.7c7.5-0.2,10.7-3.3,10.7-8.3c0-6.4-5.6-8.8-11.9-11.4
		c-8-3.3-17-7.1-17-20c0-9.1,7.9-17.6,22.2-17.6c4.8,0,9.1,0.6,14.5,1.9l1.2,15.2h-0.2c-4-6.1-9.2-7.6-14.6-7.6
		c-7,0-10.6,2.4-10.6,7.1c0,5.4,5.2,7.5,11.2,10c8.2,3.4,18,7.5,18,21.4c0,10.3-7.6,18.7-22.5,18.9
		C368.5,201.1,361.4,199.8,357.3,197.3z"/>
	<path class="st0" d="M448.1,151.5l-0.2,0.1c-2.1-3.7-6.5-6.8-12-6.8H429V185c0,7.9,2.6,12.8,5.6,14.4v0.2h-23.9v-0.2
		c2.7-1.6,5.6-6.6,5.6-14.4v-40.2h-7c-5.5,0-9.9,3.1-12,6.8l-0.2-0.1l1.6-16.9c4.2,0.6,8.1,0.7,12.7,0.7h22.5
		c4.5,0,8.4-0.2,12.7-0.7L448.1,151.5z"/>
	<path class="st0" d="M169.8,232.8v36.9c0,7.3,2.6,11.7,5,13.3v0.2h-22.4V283c2.1-1.6,4.7-6.1,4.7-13.3v-16.2h-24.6v15.8
		c0,7.7,2.5,12.1,4.7,13.7v0.2h-22.4V283c2.3-1.6,5-6.1,5-13.7v-36.5c0-7.7-2.6-12.1-5-13.7V219h22.4v0.2c-2.1,1.6-4.7,6.1-4.7,13.7
		v11.5h24.6v-11.5c0-7.7-2.5-12.1-4.7-13.7V219h22.4v0.2C172.5,220.7,169.8,225.2,169.8,232.8z"/>
	<path class="st0" d="M240.8,283v0.2h-20.9V283c1.6-1.2,2.3-5,0-11.4l-0.8-2.2h-23.8l-0.8,2.2c-2.4,6.4-1.5,10.2-0.2,11.4v0.2h-19.4
		V283c2.5-2.2,6.5-7.9,9-15l13.2-38.1c1.9-5.4,0.1-9.3-1.7-10.8V219h24.5v0.2c-1.8,1.6-3.6,5.4-1.7,10.8l13.6,38.1
		C234.2,275.1,238.2,280.9,240.8,283z M201.7,250.6l-3.4,9.8H216l-3.4-9.8c-2.1-6-4.4-12.2-5.4-19.3h-0.4
		C206,238.4,203.8,244.6,201.7,250.6z"/>
	<path class="st0" d="M300.4,281.5v0.2l-18.9,3.4c-1.2-3.6-2.7-6.8-4.7-10.3l-14.3-24.5h4.4c8,0,12.4-3.2,12.4-11.5
		c0-6.8-4.4-11-12.4-10.9l-6.5,0.1v41.6c0,7.3,2.6,11.7,4.6,13.3v0.2h-22.3V283c2.4-1.6,5-6.1,5-13.7v-36.9c0-7.3-2.6-11.7-5-13.3
		V219H269c14.8,0,23.4,7.5,23.4,19.5c0,9.8-4.8,15.8-12.6,18.3l8.6,14C291.9,276.3,296,280,300.4,281.5z"/>
	<path class="st0" d="M349.7,264.2c0,12-9.1,18.9-21.6,18.9H300V283c2.3-1.8,5.5-5.9,5.5-14.2v-35.5c0-7.6-2.5-12.1-5.5-14.1V219
		h25.5c13.9,0,20.9,5.2,20.9,16.2c0,7-5.3,12.8-10.6,13.6v0.3C343.4,249.9,349.7,256.8,349.7,264.2z M336.5,263.8
		c0-6.1-3.3-10.2-10.3-10.2h-8.1v20.5h8.1C333.2,274.1,336.5,269.9,336.5,263.8z M318.1,228v16.6h6.6c5.4,0,8.6-3,8.6-8.9
		c0-5.3-3.1-7.8-8.6-7.8L318.1,228L318.1,228z"/>
	<path class="st0" d="M351.6,251.7c0-20.8,12.9-34.6,34.3-34.6c19.8,0,33,13.4,33,33.3c0,20.6-13.8,34.6-34.4,34.6
		C363.9,285,351.6,270.6,351.6,251.7z M405.2,251.3c0-15.6-7.6-24.6-20.1-24.6c-12.2,0-19.6,9.6-19.6,24c0,15.1,6.8,24.7,20,24.7
		C396.8,275.4,405.2,266.1,405.2,251.3z"/>
	<path class="st0" d="M423.7,256.8v-23.9c0-7.6-2.7-12.1-5-13.7V219h22.5v0.2c-2.1,1.6-4.7,6-4.7,13.7v25c0,12.6,3.8,17.3,13.9,17.3
		c9,0,13-5.5,13-17.3v-24.9c0-7.6-2.7-12.1-4.7-13.7V219h22.2v0.2c-2.4,1.6-5,6-5,13.7v23.9c0,18.8-8.7,28-26.5,28
		C432.9,284.8,423.7,275.6,423.7,256.8z"/>
	<path class="st0" d="M539.8,281.5v0.2l-19,3.4c-1.2-3.6-2.7-6.8-4.7-10.3l-14.3-24.5h4.4c8,0,12.4-3.2,12.4-11.5
		c0-6.8-4.4-11-12.4-10.9l-6.5,0.1v41.6c0,7.3,2.6,11.7,4.6,13.3v0.2h-22.3V283c2.4-1.6,5-6.1,5-13.7v-36.9c0-7.3-2.6-11.7-5-13.3
		V219h26.2c14.8,0,23.4,7.5,23.4,19.5c0,9.8-4.8,15.8-12.6,18.3l8.6,14C531.3,276.3,535.4,280,539.8,281.5z"/>
</g>
<g>
	<path class="st0" d="M92.1,90.7v3.4L90.1,96h-7.4v-0.3l0.5-0.5v-12l-0.5-0.5v-0.3h7.2l1.9,1.9v3.4l-1.4,1.4L92.1,90.7z M86.3,87.8
		h1.9l0.6-0.6v-1.5l-0.6-0.6h-1.9V87.8z M89,90.9l-0.6-0.6h-2.1v3h2.1l0.6-0.6V90.9z"/>
	<path class="st0" d="M117.7,92.9h0.3l-0.1,0.5l-0.4,2.7h-7.8v-0.3l0.5-0.5v-12l-0.5-0.5v-0.3h7.8l0.4,2.7l0.1,0.5h-0.3l-0.9-0.5
		h-3.4v2.5h2.1l0.5-0.5h0.3v3.7h-0.3l-0.5-0.5h-2.1v2.9h3.4L117.7,92.9z"/>
	<path class="st0" d="M138.4,86.9l4.9,3.1v4.2l-1.9,1.9h-5.6l-0.4-2.7l-0.1-0.5h0.3l0.9,0.5h3.1l0.6-0.6v-1.3l-4.9-3.1v-3.9l1.9-1.9
		h5.8l0.4,2.7l0.1,0.5h-0.3l-0.9-0.5H139l-0.6,0.6V86.9z"/>
	<path class="st0" d="M170,85.7h-0.3l-0.9-0.5h-1.9v10.1l0.5,0.5v0.3h-4.1v-0.3l0.5-0.5V85.2h-1.9l-0.9,0.5h-0.3l0.1-0.5l0.4-2.7
		h8.4l0.4,2.7L170,85.7z"/>
	<path class="st0" d="M215.3,84.5v9.7l-1.9,1.9h-1.1v1.3l0.5,0.5v0.3h-4.1v-0.3l0.5-0.5V96h-1.1l-1.9-1.9v-9.7l1.9-1.9h5.2
		L215.3,84.5z M211.7,85.2h-1.8l-0.6,0.6v7l0.6,0.6h1.8l0.6-0.6v-7L211.7,85.2z"/>
	<path class="st0" d="M242.7,82.8l-0.5,0.5v10.8l-1.9,1.9H235l-1.9-1.9V83.3l-0.5-0.5v-0.3h4.1v0.3l-0.5,0.5v9.5l0.6,0.6h1.8
		l0.6-0.6v-9.5l-0.5-0.5v-0.3h4.1L242.7,82.8L242.7,82.8z"/>
	<path class="st0" d="M269.7,95.8v0.3h-3.9v-0.3l0.4-0.4l-0.3-1.6h-3l-0.3,1.6l0.4,0.4v0.3h-3.9v-0.3l0.4-0.4l2.6-12.2l-0.4-0.3
		v-0.3h4.7l2.7,12.8L269.7,95.8z M265.4,90.9l-1-5.2h-0.1l-1,5.2H265.4z"/>
	<path class="st0" d="M294.6,92.9l-0.1,0.5l-0.4,2.7h-7.4v-0.3l0.5-0.5v-12l-0.5-0.5v-0.3h4.1v0.3l-0.5,0.5v10.1h3l1-0.5H294.6z"/>
	<path class="st0" d="M315.2,83.3v12l0.5,0.5v0.3h-4.1v-0.3l0.5-0.5v-12l-0.5-0.5v-0.3h4.1v0.3L315.2,83.3z"/>
	<path class="st0" d="M342,85.7h-0.3l-1-0.5h-1.9v10.1l0.5,0.5v0.3h-4.1v-0.3l0.5-0.5V85.2h-1.9l-1,0.5h-0.3l0.1-0.5l0.4-2.7h8.4
		l0.4,2.7L342,85.7z"/>
	<path class="st0" d="M368.8,82.5v0.3l-0.4,0.4l-3.2,7v5l0.5,0.5v0.3h-4.1v-0.3l0.5-0.5v-5l-3.2-7l-0.4-0.4v-0.3h4v0.3l-0.3,0.5
		l1.5,3.6l1.5-3.6l-0.3-0.5v-0.3H368.8z"/>
	<path class="st0" d="M413.7,85.7h-0.3l-1-0.5h-1.9v10.1l0.5,0.5v0.3H407v-0.3l0.5-0.5V85.2h-1.9l-1,0.5h-0.3l0.1-0.5l0.4-2.7h8.4
		l0.4,2.7L413.7,85.7z"/>
	<path class="st0" d="M439.9,84.5v9.7L438,96h-5.2l-1.9-1.9v-9.7l1.9-1.9h5.2L439.9,84.5z M436.2,85.2h-1.8l-0.6,0.6v7l0.6,0.6h1.8
		l0.6-0.6v-7L436.2,85.2z"/>
	<path class="st0" d="M466.9,90.7v3.4L465,96h-7.4v-0.3l0.5-0.5v-12l-0.5-0.5v-0.3h7.2l1.9,1.9v3.4l-1.4,1.4L466.9,90.7z
		 M461.1,87.8h2l0.6-0.6v-1.5l-0.6-0.6h-2V87.8z M463.9,90.9l-0.6-0.6h-2.1v3h2.1l0.6-0.6V90.9z"/>
	<path class="st0" d="M494.7,95.8v0.3h-3.9v-0.3l0.4-0.4l-0.3-1.6h-3l-0.3,1.6l0.4,0.4v0.3H484v-0.3l0.4-0.4l2.6-12.2l-0.4-0.3v-0.3
		h4.7l2.7,12.8L494.7,95.8z M490.4,90.9l-1-5.2h-0.1l-1,5.2H490.4z"/>
	<path class="st0" d="M519.7,92.9h0.3l-0.1,0.5l-0.4,2.7h-5.8l-1.9-1.9v-9.7l1.9-1.9h5.8l0.4,2.7l0.1,0.5h-0.3l-1-0.5h-3.3l-0.6,0.6
		v7l0.6,0.6h3.3L519.7,92.9z"/>
	<path class="st0" d="M545.3,92.9h0.3l-0.1,0.5l-0.4,2.7h-5.8l-1.9-1.9v-9.7l1.9-1.9h5.8l0.4,2.7l0.1,0.5h-0.3l-1-0.5H541l-0.6,0.6
		v7l0.6,0.6h3.3L545.3,92.9z"/>
	<path class="st0" d="M572.1,84.5v9.7l-1.9,1.9h-5.2l-1.9-1.9v-9.7l1.9-1.9h5.2L572.1,84.5z M568.4,85.2h-1.8l-0.6,0.6v7l0.6,0.6
		h1.8l0.6-0.6v-7L568.4,85.2z"/>
</g>
<g>
	<path class="st1" d="M413.7,340.8c0-2.6-2.1-4.9-5.2-5.5c-20.3-3.8-49.1-6.1-81.1-6.1s-60.8,2.4-81.1,6.1c-3.1,0.6-5.2,2.9-5.2,5.5
		v15.6c0,2.6,2.1,4.9,5.2,5.5c20.3,3.8,49.1,6.1,81.1,6.1s60.8-2.4,81.1-6.1c3-0.6,5.2-2.9,5.2-5.5L413.7,340.8L413.7,340.8z"/>
	<g>
		<g>
			<path class="st2" d="M262,347.6c-0.5,0.4-1.5,1.2-3.1,2.4c0.1,0.4,0.3,1,0.6,1.9c0.2,0.8,0.4,1.4,0.6,1.9l-3.2-2.2
				c0,0-1,0.7-3.2,2.2c0.7-2.4,1.1-3.6,1.1-3.7c0,0-1-0.8-3.1-2.4l3.5-0.1c0.2,0,0.3,0,0.4,0c0.3-0.8,0.7-2,1.3-3.7
				c0.5,1.4,0.9,2.6,1.3,3.6c0,0,0.1,0,0.2,0C259.3,347.5,260.5,347.5,262,347.6z"/>
			<path class="st2" d="M277,344.7h-0.3l-1-0.5h-1.9v10.3l0.5,0.5v0.3h-4.2V355l0.5-0.5v-10.3h-1.9l-1,0.5h-0.3l0.1-0.5l0.4-2.8h8.6
				l0.4,2.8L277,344.7z"/>
			<path class="st2" d="M288.5,343.2v11.3l0.5,0.5v0.3h-4.1V355l0.5-0.5v-4.2h-2.8v4.2l0.5,0.5v0.3h-4.2V355l0.5-0.5v-11.3l-0.5-0.5
				v-0.3h4.2v0.3l-0.5,0.5v4.1h2.8v-4.1l-0.5-0.5v-0.3h4.1v0.3L288.5,343.2z"/>
			<path class="st2" d="M299.6,352h0.3l-0.1,0.5l-0.4,2.8h-8V355l0.5-0.5v-11.3l-0.5-0.5v-0.3h8l0.4,2.8l0.1,0.5h-0.3l-1-0.5h-3.5
				v2.2h2.1l0.5-0.5h0.3v3.8h-0.3l-0.5-0.5h-2.1v2.4h3.5L299.6,352z"/>
			<path class="st2" d="M315.5,343.4v9.9l-2,2h-5.3l-2-2v-9.9l2-2h5.3L315.5,343.4z M311.7,344.2h-1.8l-0.6,0.6v7.2l0.6,0.6h1.8
				l0.6-0.6v-7.2L311.7,344.2z"/>
			<path class="st2" d="M327.7,355v0.3h-4.1V355l0.3-0.5l-1.1-3.4h-1.1v3.4l0.5,0.5v0.3H318V355l0.5-0.5v-11.3l-0.5-0.5v-0.3h7.6
				l2,2v4.8l-1.6,1.6l1.2,3.8L327.7,355z M321.7,348.4h2.2l0.6-0.6v-2l-0.6-0.6h-2.2V348.4z"/>
			<path class="st2" d="M333.9,343.2v11.3l0.5,0.5v0.3h-4.2V355l0.5-0.5v-11.3l-0.5-0.5v-0.3h4.2v0.3L333.9,343.2z"/>
			<path class="st2" d="M346.7,347.8l-0.5,0.5v5.1l-2,2h-5.3l-2-2v-8.9l2-2h6.1l0.4,2.8l0.1,0.5h-0.3l-1-0.5h-3.6l-0.6,0.6v6.2
				l0.6,0.6h1.8l0.6-0.6v-1.7h-1.2l-0.6-2.8h5.5L346.7,347.8L346.7,347.8z"/>
			<path class="st2" d="M352.4,343.2v11.3l0.5,0.5v0.3h-4.2V355l0.5-0.5v-11.3l-0.5-0.5v-0.3h4.2v0.3L352.4,343.2z"/>
			<path class="st2" d="M365,343.2v11.3l0.5,0.5v0.3h-3.3l-3.3-6.8v6l0.5,0.5v0.3h-4.1V355l0.5-0.5v-11.3l-0.5-0.5v-0.3h3.3l3.3,6.7
				v-5.9l-0.5-0.5v-0.3h4.1v0.3L365,343.2z"/>
			<path class="st2" d="M378.5,355v0.3h-4.1V355l0.4-0.4l-0.3-1.4h-3.2l-0.3,1.4l0.4,0.4v0.3h-4.1V355l0.5-0.5l2.6-11.5l-0.4-0.3
				v-0.3h5l2.8,12.1L378.5,355z M374,350.7l-1-5.5h-0.1l-1,5.5H374z"/>
			<path class="st2" d="M388.4,352l-0.1,0.5l-0.4,2.8h-7.6V355l0.5-0.5v-11.3l-0.5-0.5v-0.3h4.2v0.3l-0.5,0.5v9.3h3.1l1-0.5H388.4z"
				/>
			<path class="st2" d="M403.6,347.6c-0.5,0.4-1.5,1.2-3.1,2.4c0.1,0.4,0.3,1,0.6,1.9c0.2,0.8,0.4,1.4,0.6,1.9l-3.2-2.2
				c0,0-1,0.7-3.2,2.2c0.7-2.4,1.1-3.6,1.1-3.7c0,0-1-0.8-3.1-2.4l3.5-0.1c0.2,0,0.3,0,0.3,0c0.3-0.8,0.7-2,1.3-3.7
				c0.5,1.4,0.9,2.6,1.3,3.6c0,0,0.1,0,0.2,0C400.8,347.5,402,347.5,403.6,347.6z"/>
		</g>
	</g>
</g>
</svg>
